<svg width="47" height="12" viewBox="0 0 47 12" fill="none" xmlns="http://www.w3.org/2000/svg">
<g clip-path="url(#clip0_7057_38291)">
<path d="M18.9773 5.33784C18.7046 5.61721 18.3714 5.81919 17.9784 5.94376C18.3097 6.0127 18.577 6.17839 18.7808 6.44084C18.9846 6.70329 19.0862 7.01411 19.0862 7.37271C19.0862 7.46946 19.0759 7.5765 19.0553 7.69381C18.9586 8.28039 18.6635 8.75328 18.1701 9.11187C17.6766 9.47107 17.0605 9.65007 16.3222 9.65007H13.2062L14.49 2.42371H17.471C18.1265 2.42371 18.632 2.56158 18.9876 2.83794C19.3431 3.11429 19.5209 3.48317 19.5209 3.94578C19.5209 4.05644 19.5106 4.17013 19.4901 4.28744C19.4211 4.70833 19.25 5.05846 18.9779 5.33844L18.9773 5.33784ZM17.6367 7.30982C17.6367 7.06128 17.5484 6.86656 17.3725 6.72506C17.1965 6.58355 16.9534 6.5128 16.6426 6.5128H15.2144L14.8727 8.5005H16.3324C16.6844 8.5005 16.974 8.41403 17.202 8.24169C17.4299 8.06934 17.5678 7.82745 17.6162 7.51723C17.6301 7.42048 17.6367 7.35154 17.6367 7.31042V7.30982ZM17.9887 4.31768C17.9887 4.0764 17.9094 3.88954 17.7504 3.75892C17.5914 3.6277 17.3604 3.56239 17.0568 3.56239H15.7423L15.4109 5.42612H16.7358C17.0738 5.42612 17.3531 5.34509 17.5745 5.18303C17.7952 5.02096 17.93 4.7948 17.9784 4.50514C17.985 4.46402 17.9887 4.40173 17.9887 4.31889V4.31768Z" fill="#3F444D"/>
<path d="M26.115 3.91433L25.1003 9.64947H23.6509L23.7748 8.92501C23.5541 9.17355 23.2814 9.36827 22.9573 9.50977C22.6326 9.65128 22.291 9.72203 21.9324 9.72203C21.3386 9.72203 20.8694 9.56178 20.5247 9.24068C20.1794 8.91957 20.0071 8.46241 20.0071 7.86918C20.0071 7.64846 20.024 7.45192 20.0591 7.27898L20.6493 3.91433H22.0987L21.5399 7.07156C21.5194 7.19552 21.5091 7.31647 21.5091 7.43378C21.5091 7.77182 21.6022 8.03245 21.7885 8.21508C21.9747 8.39831 22.2371 8.48962 22.5752 8.48962C22.9688 8.48962 23.3032 8.36686 23.5795 8.12195C23.8553 7.87704 24.0312 7.52691 24.1074 7.07095L24.6667 3.91373H26.1162L26.115 3.91433Z" fill="#3F444D"/>
<path d="M27.9054 8.45878H30.4517L30.2347 9.64947H26.0424L26.2492 8.47995L29.3446 5.10502H26.8497L27.0565 3.91434H31.2179L31.0214 5.08446L27.9054 8.45939V8.45878Z" fill="#3F444D"/>
<path d="M33.0924 9.91011H35.6387L35.4216 11.1008H31.2294L31.4362 9.93127L34.5315 6.55635H32.0366L32.2434 5.36566H36.4048L36.2083 6.53579L33.0924 9.91071V9.91011Z" fill="#3F444D"/>
<path d="M41.8245 4.42651C42.2527 4.83046 42.4661 5.3735 42.4661 6.05683C42.4661 6.27755 42.4486 6.47469 42.4141 6.64703C42.373 6.85385 42.3276 7.03345 42.2793 7.18523H38.087C38.0798 7.23361 38.0767 7.30255 38.0767 7.39204C38.0767 7.75125 38.182 8.03244 38.3924 8.23562C38.6028 8.43941 38.8804 8.54101 39.2256 8.54101C39.5153 8.54101 39.7656 8.47751 39.976 8.34931C40.1865 8.22172 40.357 8.05421 40.4882 7.8474H42.0513C41.7961 8.3995 41.4007 8.85364 40.8661 9.20861C40.331 9.56419 39.7257 9.74197 39.0497 9.74197C38.318 9.74197 37.7315 9.53516 37.2901 9.12093C36.8486 8.7067 36.6273 8.14431 36.6273 7.43377C36.6273 7.22696 36.6479 7.00926 36.6896 6.78128C36.793 6.18805 37.0052 5.66679 37.3263 5.21809C37.6474 4.76939 38.0459 4.4247 38.5218 4.18281C38.9983 3.94153 39.5189 3.82059 40.0849 3.82059C40.8165 3.82059 41.3958 4.02256 41.8239 4.42591L41.8245 4.42651ZM40.9961 6.06711C40.9961 5.73573 40.8891 5.47691 40.6751 5.29065C40.461 5.1044 40.1816 5.01127 39.8364 5.01127C39.4705 5.01127 39.1428 5.12678 38.8531 5.35778C38.5635 5.58938 38.3597 5.90505 38.2424 6.30476H40.9756C40.9895 6.19471 40.9961 6.11488 40.9961 6.06651V6.06711Z" fill="#3F444D"/>
<path d="M45.9237 4.12114C46.255 3.92824 46.6136 3.83148 47 3.83148L46.7309 5.35355H46.3481C45.92 5.35355 45.5772 5.44668 45.3184 5.63293C45.0596 5.81919 44.8715 6.13666 44.7542 6.58536L44.216 9.64946H42.7563L43.771 3.91433H45.2307L45.0547 4.92904C45.3033 4.58375 45.5929 4.31465 45.9243 4.12175L45.9237 4.12114Z" fill="#3F444D"/>
<path d="M30.7184 9.89137L31.051 7.95204H29.0991L31.7597 5.12378L31.4313 7.03952H33.3669L30.7184 9.89137Z" fill="#FFB414"/>
<path d="M10.7621 4.88974C10.3098 5.36989 9.76801 5.68918 9.13491 5.84761C9.72205 5.99456 10.1713 6.27454 10.4821 6.68635C10.7929 7.09877 10.9483 7.58194 10.9483 8.13526C10.9483 8.31607 10.9314 8.50837 10.8976 8.71155C10.7168 9.76255 10.2282 10.5735 9.4312 11.1437C8.63484 11.7146 7.58632 11.9994 6.28747 11.9994H0L2.1188 0H8.23696C9.32175 0 10.1659 0.211651 10.7706 0.635557C11.3746 1.05946 11.6776 1.67809 11.6776 2.49143C11.6776 2.68373 11.6607 2.89236 11.6268 3.11852C11.5022 3.81939 11.2144 4.4096 10.7627 4.88974H10.7621Z" fill="#FFB414"/>
<path d="M4.56727 9.64161L5.07399 6.68999H2.70728L6.15214 2.38501L5.65267 5.30095H7.994L4.56727 9.64161Z" fill="#12150E"/>
</g>
<defs>
<clipPath id="clip0_7057_38291">
<rect width="47" height="12" fill="white"/>
</clipPath>
</defs>
</svg>
